<svg xmlns="http://www.w3.org/2000/svg" viewBox="0 0 32 32">
  <!-- Background: rounded square in deep ink, matches site's display color -->
  <rect width="32" height="32" rx="8" fill="#1c1917"/>

  <!-- Large sparkle: simple 4-point star, crisp at small sizes -->
  <path
    d="M16 5
       C16.6 10.5 17.6 14.4 19 15.8
       C20.4 17.2 24.3 18.2 29.8 18.8
       C24.3 19.4 20.4 20.4 19 21.8
       C17.6 23.2 16.6 27.1 16 32.6
       C15.4 27.1 14.4 23.2 13 21.8
       C11.6 20.4 7.7 19.4 2.2 18.8
       C7.7 18.2 11.6 17.2 13 15.8
       C14.4 14.4 15.4 10.5 16 5Z"
    fill="#f4a96b"
    transform="translate(0,-2.5)"
  />

  <!-- Small accent sparkle, terra orange -->
  <path
    d="M24 6
       C24.35 8 24.85 9.1 25.6 9.6
       C24.85 10.1 24.35 11.2 24 13.2
       C23.65 11.2 23.15 10.1 22.4 9.6
       C23.15 9.1 23.65 8 24 6Z"
    fill="#c4522a"
  />
</svg>
